<?xml version="1.0" encoding="utf-8"?>
<!-- Generator: Adobe Illustrator 25.2.0, SVG Export Plug-In . SVG Version: 6.00 Build 0)  -->
<svg version="1.1" id="Layer_1" xmlns="http://www.w3.org/2000/svg" xmlns:xlink="http://www.w3.org/1999/xlink" x="0px" y="0px"
	 viewBox="0 0 162.7 206.7" style="enable-background:new 0 0 162.7 206.7;" xml:space="preserve">
<style type="text/css">
	.st0{fill:#6B6B6B;}
	.st1{fill:#EDEDED;stroke:#6B6B6B;stroke-width:8;stroke-miterlimit:10;}
</style>
<g>
	<path class="st0" d="M51.1,187.2v-20.8c-12.1,0-24.2-3.5-31.1-8.7l5.2-13.8c6.9,5.2,18.2,8.7,29.4,8.7c14.7,0,24.2-8.7,24.2-19.9
		s-7.8-18.2-23.4-24.2c-20.8-7.8-33.7-17.3-33.7-35.5c0-17.3,12.1-29.4,31.1-32.9V19.4h13v19.9c12.1,0,20.8,3.5,26.8,6.9l-5.2,13.8
		c-4.3-2.6-13-6.9-26-6.9c-15.6,0-21.6,9.5-21.6,17.3c0,10.4,7.8,15.6,25.1,23.4c20.8,8.7,32,19,32,37.2c0,16.4-11.2,31.1-32,34.6
		v21.6L51.1,187.2z"/>
</g>
<circle class="st1" cx="105.3" cy="140.7" r="37.4"/>
<g>
	<path class="st0" d="M119.2,137.1v7.3H91.4v-7.3H119.2z"/>
</g>
</svg>
