<?xml version="1.0" encoding="utf-8"?>
<!-- Generator: Adobe Illustrator 25.2.0, SVG Export Plug-In . SVG Version: 6.00 Build 0)  -->
<svg version="1.1" id="Layer_1" xmlns="http://www.w3.org/2000/svg" xmlns:xlink="http://www.w3.org/1999/xlink" x="0px" y="0px"
	 viewBox="0 0 280 234" style="enable-background:new 0 0 280 234;" xml:space="preserve">
<style type="text/css">
	.st0{fill:#6B6B6B;}
</style>
<path class="st0" d="M253.3,90.8c-1.1-0.8-2.1,0.8-1.3,1.8c0,0.3,0.2,0.5,0.3,0.8c5.4,5.1-1,12.3-6,14.4c-1.3,0.5-2.6,0.7-3.9,0.5
	c0.3-0.5,0.7-1.1,1-1.8c4.7-8.8-0.8-25-12.4-18c-4.7,2.9-6,9.6-3.6,14.4c1.1,2.1,2.8,4.1,4.6,5.6c-2.9,1.3-6.5,1.8-8.7,0.3
	c-5.9-31.4-31.9-65.9-88.7-65c-12.7,0.2-24.7,2.6-34.6,6.9c-5.2-7.2-12.6-13.6-19.4-17c-7-3.4-17.8-5.6-25.5-3.8
	c-6.9,1.6-10.9,6.9-8.7,14.1c2.3,7.4,6.7,13.2,10.1,19.9c1.3,2.6,2.6,5.4,3.6,8C49,77.2,38.7,89,36.7,101.6
	c-12.6,2.9-15.7,19.1-15,31.4c-0.7,8.2,1,14.9,7,21.1c0.2,0.2,0.5,0.3,0.8,0.5c3.1,3.9,7.2,7,12.4,8.8c3.8,6.7,9.8,11.4,15.9,16.5
	c3.4,2.9,7.2,6,11.3,8.2c0,1,0,1.8,0,2.8c0,5.1,0.7,9.8,2,14.1h47.1c0.7-2.5,2.3-8.5,2.1-9.2c6-2.6,19.1-3.9,19.9,2.9
	c0.3,2.1,0.8,4.2,1.3,6h46.7c1.3-4.2,2-9,2-14.1c0-1.6-0.2-3.4-0.3-4.9c0-0.2,0.2-0.3,0.2-0.7c20.6-12.9,34.3-36.1,34.3-62.6
	c0-2-0.2-3.9-0.3-6c0.8,0.3,1.8,0.5,2.6,0.5c4.9,0.3,9-1.8,12.1-4.9c1,0.3,2.1,0.5,3.1,0.7c6.4,0.8,12.6-1.1,15.4-7.5
	C260,100.1,258,93.9,253.3,90.8z M133.3,150.9v10.2h-6.5v-9.8c-5.7,0-11.4-1.6-14.7-4.1l2.4-6.5c3.3,2.4,8.6,4.1,13.8,4.1
	c6.9,0,11.4-4.1,11.4-9.4c0-5.3-3.7-8.6-11-11.4c-9.8-3.7-15.9-8.1-15.9-16.7c0-8.1,5.7-13.8,14.7-15.5V82h6.1v9.4
	c5.7,0,9.8,1.6,12.6,3.3l-2.4,6.5c-2-1.2-6.1-3.3-12.2-3.3c-7.3,0-10.2,4.5-10.2,8.1c0,4.9,3.7,7.3,11.8,11
	c9.8,4.1,15.1,9,15.1,17.5C148.4,142.3,143.1,149.3,133.3,150.9z M236.1,105.5c-1.6-1.3-2.9-2.9-3.6-4.7c-1.1-3.4,2-9.2,5.1-4.6
	C239.7,99.1,238.1,102.9,236.1,105.5z"/>
</svg>
