<?xml version="1.0" encoding="utf-8"?>
<!-- Generator: Adobe Illustrator 25.2.0, SVG Export Plug-In . SVG Version: 6.00 Build 0)  -->
<svg version="1.1" id="Layer_1" xmlns="http://www.w3.org/2000/svg" xmlns:xlink="http://www.w3.org/1999/xlink" x="0px" y="0px"
	 viewBox="0 50 1796.3 431" style="enable-background:new 0 0 1796.3 491;" xml:space="preserve">
<style type="text/css">
	.st0{fill:#ededed;;}
</style>
<path class="st0" d="M1790.8,410.8c-5.1-2.1-6.7-2.1-21.5,0.4c-8.7,1.5-16.3,2.8-16.8,2.8c-0.4,0-2.2,2.2-3.9,5.1l-2.9,5.2l-23.4-1
	c-12.8-0.6-23.9-1.4-24.4-1.7c-0.7-0.4-1.1-4.2-1.1-8.3c0-4.2-1-9.8-2.4-12.6l-2.4-4.9h-11.5c-6.3,0-16.6,0.7-22.6,1.4
	c-11.2,1.5-13.1,2.7-18.9,11.1l-2.1,2.9l-17.4-3.9l-17.4-3.9l-1-5.5c-0.6-3.1-1-17.3-1-31.6c-0.1-14.3-0.6-37.8-1.1-52.2
	c-0.8-25.3-1-26.2-3.8-26.7c-2.8-0.4-2.9-1.4-3.6-20.1l-0.7-19.6l-7.7,0.4c-7.6,0.3-7.7,0.3-10.8-5.2c-3.1-5.3-3.5-5.5-15.2-7.7
	c-15.2-2.8-25-1.1-28.1,4.9c-1.8,3.4-3.2,3.9-18.2,6.2l-16.1,2.4v24c0,23.7,0,23.9-2.8,21.3c-1.5-1.4-2.8-3.5-2.8-4.6
	c0-1.7-1.3-1.8-6.5-1.1c-3.6,0.4-9,0.8-11.9,0.8c-4.6,0-5.6,0.6-6.3,3.6l-0.8,3.5l-3.1-2.8c-3.2-3.1-11.8-4.1-14.2-1.7
	c-0.8,0.7-4.9,1.5-9.1,1.8l-7.7,0.4l-1-5.6c-0.6-3.1-1-8-1-10.9c-0.1-4.8-0.4-5.2-4.2-5.2c-2.9,0-4.5-0.8-5.1-2.7
	c-1.3-4.2-12.9-7.6-18.7-5.6c-2.7,1-4.5,2.5-4.5,3.9c0,2.7-5.3,5.8-9.8,5.8c-2.4,0-2.8,1-2.8,6.3v6.3h-16.4
	c-24.7,0-22.6,1.8-23.4-20.9c-0.4-10.5-1.1-22.7-1.5-27.2l-1-8h-6.2c-5.6,0-6.3,0.4-8.1,4.8c-2.7,6.3-5.9,7.9-16.6,7.9h-8.8
	l-7.3,8.8l-7.4,8.7v15.6c0,19.1-1,24.8-3.9,23.7c-2.9-1.1-5.9,1.8-5.9,5.8c0,1.8-0.6,3.4-1.4,3.4c-0.7,0-1.4-3.5-1.4-7.7v-7.6
	l-5.1-1c-4.6-0.8-26.2-0.1-31.3,1.1c-1.5,0.3-2.1-1.1-2.2-5.2c-0.1-4.6-0.7-5.8-3.2-6c-2.9-0.4-3.1-1.1-3.1-16.1
	c0-15.4-0.1-16-5.6-27.2c-3.9-8.1-5.8-14.3-6.5-20.9c-1-9.8-2.4-9.5-3.9,1c-0.6,3.5-2.5,10.1-4.4,14.7l-3.5,8.3v-7.3
	c0-3.9-0.6-7.6-1.1-8c-2.1-1.3-54.3-2.7-61-1.7l-6.6,1v28.5v28.3l-5.9-0.7c-5.3-0.7-6-1.3-7-5.8c-0.7-2.7-1.1-8.7-1.1-13.2V255
	l-11.5,0.8c-6.2,0.4-13.3,0.4-15.7,0l-4.4-0.7l0.4-8.4l0.6-8.6l-7.6,0.8c-4.1,0.6-10.4,1-13.9,1h-6.5l-0.8,5.9
	c-0.4,3.4-1.5,6.2-2.2,6.5c-0.8,0.3-1.5,1.4-1.5,2.4s-1.5,2.8-3.5,4.1c-3.4,2.2-3.5,2.9-3.5,15.7c0,13.3,0,13.5-3.1,12.6
	c-1.8-0.4-3.6-0.8-4.2-0.8c-0.7,0-1.1-2.2-1.1-4.9c0-4.8-0.3-4.9-5.1-4.9c-4.4,0-5.1,0.4-4.4,2.8c0.4,1.5,0.1,3.2-0.6,3.6
	c-0.7,0.4-1.3,5.5-1.3,11.2c0,8.6-0.4,10.4-2.2,10.4c-1.4,0-2-0.8-1.4-2.1c0.4-1.1-1-4.1-2.9-6.5c-3.6-4.4-3.9-4.4-12.6-3.5l-8.8,1
	v-25.1v-25.1l-28.3,0.6c-15.7,0.3-30.7,1-33.4,1.5l-4.9,1.1l0.6,29.3c0.4,27.5,0.3,29.6-2.1,31.9c-2.2,2-12.1,5.2-16.3,5.3
	c-0.7,0-1.1-27.4-1.1-60.9v-60.8l-7.3-1c-11.6-1.3-36.1-1-39.2,0.6c-2.5,1.4-2.7,3.2-2.7,30.9c0,18.1-0.6,29.6-1.4,30.2
	c-0.8,0.4-5.8,0.4-11.2-0.1l-9.7-1l-0.4-14.9l-0.4-14.9l-4.1-0.4c-2.2-0.3-6.5,0.6-9.4,1.8c-7.6,3.5-8.4,7.7-9.3,52.2
	c-0.4,21.1-1.4,38.3-2,38.3c-0.7,0-1.3,1.5-1.3,3.4c0,2.1-1,3.6-2.8,4.1c-2.5,0.7-2.8,2-2.8,13.2v12.3h-7.3c-7.2,0-7.4,0.1-9.8,5.2
	c-2,4.1-3.4,5.3-6,5.3h-3.5v-14.6c0-14.3,0-14.6-3.4-15.4c-2.7-0.7-3.5-2-3.9-5.5c-0.3-3.4-1.1-4.6-3.5-4.9
	c-2.2-0.3-3.2,0.4-3.9,3.6c-0.4,2.5-2,4.5-3.6,4.9c-2.4,0.7-2.7,2.1-2.7,17.3c0,23.9-2.8,19.1-3.8-6.3l-0.8-19.8h-6
	c-3.2,0-7.6-0.6-9.5-1.4c-3.1-1.1-3.6-2.2-3.6-6.9c0-3.1-0.6-6-1.4-6.5c-0.7-0.4-1.4-1.8-1.4-3.1c0-3.2-6.5-16.4-9.1-18.7
	c-1.1-1-4.2-2.2-6.7-2.7l-4.5-1l0.4-8.7l0.6-8.7l-14.6-0.1c-8-0.1-14.9-0.1-15.4,0c-1.4,0.1-1.1,8.7-2.4-74.8l-1.1-71.4l-3.8-2.7
	c-2-1.5-3.6-3.5-3.6-4.4c0-0.8-1.5-2.8-3.5-4.5c-2.4-1.8-4.4-5.6-5.8-11.2c-1.1-4.6-2.9-9.1-4.1-9.8c-1.3-1.1-2.2-8.1-3.2-23.9
	L661.4,33l-0.1,21.8c-0.3,28.6-2.9,41-9.7,44.9c-2.8,1.7-4.6,3.8-4.6,5.6c0,2.1-1,2.8-3.5,2.8c-3.2,0-3.5,0.6-3.5,6.6
	c0,3.8-1.3,44.6-2.8,90.9c-1.5,46.3-2.8,88.4-2.8,93.6v9.5h-4.9c-4.8,0-4.9-0.1-4.9-5.5c0-3.1-0.8-6.2-2.1-7.2
	c-1.1-1-2.1-3.8-2.1-6.3c0-5.9-1.3-9.1-3.5-9.1c-1,0-4.1-2.8-6.9-6.2c-4.1-5.1-6.3-6.5-12.1-7.7c-8.8-2-15.6,0.4-19.4,6.9l-2.7,4.4
	l-2.4-5.8c-1.3-3.1-2.2-6.9-2.2-8.4c0-1.8-3.2-4.9-9.4-9.1c-5.2-3.5-10.2-6.3-11.1-6.3c-3.2,0-18.9,13.8-23,20.1
	c-2.8,4.6-5.1,6.6-6.7,6.3c-2-0.4-2.5-2.4-2.8-11.4l-0.4-11.1l-13.8,1c-7.7,0.6-17.5,1.4-22.2,2l-8.1,0.8l-0.4,22.7l-0.3,22.9h-9.1
	h-9.1l-3.6,5.9c-2.1,3.4-4.2,6.3-4.8,6.7c-2.1,1.7-5.6,11.4-5.8,15.7c0,2.5-0.4,7.2-1,10.1c-0.8,4.9-1.3,5.2-2.9,3.2
	c-1.4-1.8-4.4-2.4-12.3-2.4c-9.8,0-10.5,0.1-9.8,2.8c0.6,2.1,0,2.8-2,2.8c-1.4,0-2.7,0.6-2.7,1.4c0,0.7-1.5,1.4-3.5,1.4
	c-3.1,0-3.5,0.6-3.5,4.9c0,4.5-0.3,4.9-4.2,4.9h-4.2v-9.7v-9.7l-18.5-1.1l-18.5-1.3l-1.3-6c-0.6-3.2-2-5.9-2.9-5.9
	c-0.8,0-2.9-3.1-4.6-6.9l-2.8-6.9l-15.3-0.6c-8.4-0.4-16.1-0.4-17,0c-1,0.3-3.4,3.9-5.3,8.1c-2.8,6-4.2,7.6-6.9,7.6
	c-2.4,0-3.6,1-4.2,3.5c-0.7,2.8-1.8,3.5-5.1,3.5c-3.2,0-4.4,0.7-5.1,3.4c-1,3.9-4.1,5.1-13.9,5.1c-13.3,0-17.3,1.3-18.2,5.8
	c-0.6,2.2-1.5,4.4-2.2,4.8c-0.7,0.6-1.3,4.9-1.3,10c0,9,0,9-4.1,9c-2.2,0-4.4-0.8-4.9-2.1c-0.4-1.1-2.5-2.1-4.6-2.1
	c-3.9,0-3.9-0.1-3.9-8.3c0-4.6-0.4-8.8-1-9.3c-0.4-0.6-3.8-1-7.4-1.1l-6.5-0.3l-2.4,7c-2.8,8.4-7.3,10.5-7.3,3.6
	c0-3.4-0.6-4.4-2.8-4.4c-1.5,0-2.8-0.4-2.9-1.1c0-0.6-0.6-8-1.4-16.4c-0.7-8.6-1.7-20.6-2.2-27.1c-0.7-10.2-1.1-11.5-3.5-11.5
	c-1.8,0-2.5-0.7-2.1-1.8c0.4-1-0.1-3.4-1.3-5.3c-1-1.8-2-5.6-2.1-8.3c-0.1-2.7-0.7,0-1.3,6.2c-0.8,7.9-2,12.1-4.2,15.2
	c-3.5,4.8-5.1,14.5-6.5,39.3l-0.8,16.6l-4.4,2.1c-2.2,1.1-4.5,2.1-4.8,2.1c-0.1,0-0.4-2.4-0.6-5.3c-0.3-13.1-4.8-16.7-9-7.3
	l-2.5,5.6H145c-11.1,0-11.8,0.1-13.3,3.5c-0.8,2-2,3.5-2.5,3.5s-1.4,1.3-1.8,2.9c-1.4,5.5-3.4,1.4-2.7-5.8l0.7-7h-5.2
	c-3.2,0-4.9-0.6-4.4-1.4c1.5-2.4-2.1-5.8-4.8-4.4c-3.5,1.8-5.8,0.3-5.8-4.2c0-4.1,0-4.1-8.6-4.1c-10.2,0-19.2,2.4-19.8,5.2
	c-0.3,1.1-2.8,2.9-5.6,3.9c-4.8,1.5-5.2,1.5-5.9-1.3c-0.4-1.7-0.8-7.3-0.8-12.5c0-5.6-0.6-9.3-1.3-8.7c-0.8,0.4-1.5-2.7-1.8-7.3
	l-0.4-8.1l-1.3,8.7c-0.7,5.6-1.8,8.8-2.9,8.8c-1,0-3.6,1.7-5.9,3.9c-3.8,3.5-4.4,5.1-5.2,15.7c-1.1,12.6-4.1,21.1-7.3,21.1
	c-1.1,0-2.4,1-2.8,2.1c-0.4,1.1-2.9,2.7-5.5,3.5c-3.1,1-4.9,2.7-5.5,4.9c-0.6,2-1.4,3.4-2,3.2c-0.6,0-2,0.1-3.1,0.6
	c-5.1,1.8-13.9,3.9-16.7,3.9C0,388.7,0,389,0,417.5v17.6v11.1V491h1796.3v-44.8v-11.1v-5.6v-16.7L1790.8,410.8z"/>
</svg>
