<?xml version="1.0" encoding="utf-8"?>
<!-- Generator: Adobe Illustrator 25.2.0, SVG Export Plug-In . SVG Version: 6.00 Build 0)  -->
<svg version="1.1" id="Layer_1" xmlns="http://www.w3.org/2000/svg" xmlns:xlink="http://www.w3.org/1999/xlink" x="0px" y="0px"
	 viewBox="0 0 351.3 238.3" style="enable-background:new 0 0 351.3 238.3;" xml:space="preserve">
<style type="text/css">
	.st0{fill:#FFAA4D;}
	.st1{fill:#FDE616;}
	.st2{fill:#D3D1CD;}
	.st3{fill:#00B7A7;}
</style>
<path class="st0" d="M292.4,33.4v111.7l0,0c0,3.9-9.6,7-21.4,7c-11.8,0-21.4-3.1-21.4-7l0,0V33.4C249.5,33.4,292.4,33.4,292.4,33.4z
	"/>
<g>
	<g>
		<ellipse class="st1" cx="270.9" cy="32.9" rx="21.5" ry="7.1"/>
		<ellipse class="st0" cx="270.9" cy="32.9" rx="17.2" ry="5.7"/>
	</g>
	<g>
		<path class="st1" d="M272,37.2v-1c1.8,0,3.7-0.1,4.7-0.4l-0.8-0.6c-1,0.3-2.7,0.4-4.4,0.4c-2.2,0-3.7-0.4-3.7-1
			c0-0.5,1.2-0.9,3.5-1.2c3.1-0.4,5.1-0.9,5.1-1.8c0-0.9-1.8-1.4-4.7-1.7v-1h-2v1c-1.8,0-3.1,0.1-4,0.4l0.8,0.6
			c0.7-0.1,2-0.4,3.9-0.4c2.3,0,3.3,0.5,3.3,0.9c0,0.5-1.2,0.8-3.8,1.2c-3.1,0.4-4.8,0.9-4.8,1.8c0,0.8,1.7,1.6,4.8,1.7v1h2.1V37.2z
			"/>
	</g>
</g>
<path class="st1" d="M249.5,38.9v-3.2c0.3,2.9,9.1,6.1,21.4,6.1c12.6,0,21.4-3.2,21.4-6.2l0,0v3.4c-3.9,3.1-12.9,4.7-21.4,4.7
	C262.3,43.7,253.4,42,249.5,38.9z"/>
<path class="st1" d="M249.5,43.4v-3.2c0.3,2.9,9.1,6.1,21.4,6.1c12.6,0,21.4-3.2,21.4-6.2l0,0v3.4c-3.9,3.1-12.9,4.7-21.4,4.7
	C262.3,48.2,253.4,46.5,249.5,43.4z"/>
<path class="st1" d="M249.5,47.7v-3.2c0.3,2.9,9.1,6.1,21.4,6.1c12.6,0,21.4-3.2,21.4-6.2l0,0v3.4c-3.9,3.1-12.9,4.7-21.4,4.7
	C262.3,52.5,253.4,50.8,249.5,47.7z"/>
<path class="st1" d="M249.5,51.7v-3.2c0.3,2.9,9.1,6.1,21.4,6.1c12.6,0,21.4-3.2,21.4-6.2l0,0v3.4c-3.9,3.1-12.9,4.7-21.4,4.7
	C262.3,56.4,253.4,54.7,249.5,51.7z"/>
<path class="st1" d="M249.5,55.8v-3.2c0.3,2.9,9.1,6.1,21.4,6.1c12.6,0,21.4-3.2,21.4-6.2l0,0v3.4c-3.9,3.1-12.9,4.7-21.4,4.7
	C262.3,60.4,253.4,58.7,249.5,55.8z"/>
<path class="st1" d="M249.5,59.8v-3.2c0.3,2.9,9.1,6.1,21.4,6.1c12.6,0,21.4-3.2,21.4-6.2l0,0v3.4c-3.9,3.1-12.9,4.7-21.4,4.7
	C262.3,64.5,253.4,62.8,249.5,59.8z"/>
<path class="st1" d="M249.5,63.8v-3.2c0.3,2.9,9.1,6.1,21.4,6.1c12.6,0,21.4-3.2,21.4-6.2l0,0v3.4c-3.9,3.1-12.9,4.7-21.4,4.7
	C262.3,68.5,253.4,66.8,249.5,63.8z"/>
<path class="st1" d="M249.5,67.8v-3.2c0.3,2.9,9.1,6.1,21.4,6.1c12.6,0,21.4-3.2,21.4-6.2l0,0v3.4c-3.9,3.1-12.9,4.7-21.4,4.7
	C262.3,72.5,253.4,71,249.5,67.8z"/>
<path class="st1" d="M249.5,71.9v-3.2c0.3,2.9,9.1,6.1,21.4,6.1c12.6,0,21.4-3.2,21.4-6.2l0,0v3.4c-3.9,3.1-12.9,4.7-21.4,4.7
	C262.3,76.6,253.4,75,249.5,71.9z"/>
<path class="st1" d="M249.5,75.9v-3.2c0.3,2.9,9.1,6.1,21.4,6.1c12.6,0,21.4-3.2,21.4-6.2l0,0v3.4c-3.9,3.1-12.9,4.7-21.4,4.7
	C262.3,80.6,253.4,79,249.5,75.9z"/>
<path class="st1" d="M249.5,79.9v-3.2c0.3,2.9,9.1,6.1,21.4,6.1c12.6,0,21.4-3.2,21.4-6.2l0,0v3.4c-3.9,3.1-12.9,4.7-21.4,4.7
	C262.3,84.6,253.4,83.1,249.5,79.9z"/>
<path class="st1" d="M249.5,84v-3.2c0.3,2.9,9.1,6.1,21.4,6.1c12.6,0,21.4-3.2,21.4-6.2l0,0V84c-3.9,3.1-12.9,4.7-21.4,4.7
	C262.3,88.8,253.4,87.1,249.5,84z"/>
<path class="st1" d="M249.5,88v-3.2c0.3,2.9,9.1,6.1,21.4,6.1c12.6,0,21.4-3.2,21.4-6.2l0,0V88c-3.9,3.1-12.9,4.7-21.4,4.7
	C262.3,92.8,253.4,91.1,249.5,88z"/>
<path class="st1" d="M249.5,92.2v-3.2c0.3,2.9,9.1,6.1,21.4,6.1c12.6,0,21.4-3.2,21.4-6.2l0,0v3.4c-3.9,3.1-12.9,4.7-21.4,4.7
	C262.3,96.8,253.4,95.1,249.5,92.2z"/>
<path class="st1" d="M249.5,96.2v-3.2c0.3,2.9,9.1,6.1,21.4,6.1c12.6,0,21.4-3.2,21.4-6.2l0,0v3.4c-3.9,3.1-12.9,4.7-21.4,4.7
	C262.3,100.9,253.4,99.2,249.5,96.2z"/>
<path class="st1" d="M249.5,100.2V97c0.3,2.9,9.1,6.1,21.4,6.1c12.6,0,21.4-3.2,21.4-6.2l0,0v3.4c-3.9,3.1-12.9,4.7-21.4,4.7
	C262.3,104.9,253.4,103.2,249.5,100.2z"/>
<path class="st1" d="M249.5,104.2V101c0.3,2.9,9.1,6.1,21.4,6.1c12.6,0,21.4-3.2,21.4-6.2l0,0v3.4c-3.9,3.1-12.9,4.7-21.4,4.7
	C262.3,108.9,253.4,107.4,249.5,104.2z"/>
<path class="st1" d="M249.5,108.3V105c0.3,2.9,9.1,6.1,21.4,6.1c12.6,0,21.4-3.2,21.4-6.2l0,0v3.4c-3.9,3.1-12.9,4.7-21.4,4.7
	C262.3,113,253.4,111.4,249.5,108.3z"/>
<path class="st1" d="M249.5,112.3v-3.2c0.3,2.9,9.1,6.1,21.4,6.1c12.6,0,21.4-3.2,21.4-6.2l0,0v3.4c-3.9,3.1-12.9,4.7-21.4,4.7
	C262.3,117,253.4,115.4,249.5,112.3z"/>
<path class="st1" d="M249.5,116.3v-3.2c0.3,2.9,9.1,6.1,21.4,6.1c12.6,0,21.4-3.2,21.4-6.2l0,0v3.4c-3.9,3.1-12.9,4.7-21.4,4.7
	C262.3,121,253.4,119.5,249.5,116.3z"/>
<path class="st1" d="M249.5,120.4v-3.2c0.3,2.9,9.1,6.1,21.4,6.1c12.6,0,21.4-3.2,21.4-6.2l0,0v3.4c-3.9,3.1-12.9,4.7-21.4,4.7
	C262.3,125.2,253.4,123.5,249.5,120.4z"/>
<path class="st1" d="M249.5,124v-3.2c0.3,2.9,9.1,6.1,21.4,6.1c12.6,0,21.4-3.2,21.4-6.2l0,0v3.4c-3.9,3.1-12.9,4.7-21.4,4.7
	C262.3,128.7,253.4,127,249.5,124z"/>
<path class="st1" d="M249.5,128v-3.2c0.3,2.9,9.1,6.1,21.4,6.1c12.6,0,21.4-3.2,21.4-6.2l0,0v3.4c-3.9,3.1-12.9,4.7-21.4,4.7
	C262.3,132.7,253.4,131,249.5,128z"/>
<path class="st1" d="M249.5,132.1v-3.2c0.3,2.9,9.1,6.1,21.4,6.1c12.6,0,21.4-3.2,21.4-6.2l0,0v3.4c-3.9,3.1-12.9,4.7-21.4,4.7
	C262.3,136.7,253.4,135.2,249.5,132.1z"/>
<path class="st1" d="M249.5,136.1v-3.2c0.3,2.9,9.1,6.1,21.4,6.1c12.6,0,21.4-3.2,21.4-6.2l0,0v3.4c-3.9,3.1-12.9,4.7-21.4,4.7
	C262.3,140.8,253.4,139.2,249.5,136.1z"/>
<path class="st1" d="M249.5,140.1v-3.2c0.3,2.9,9.1,6.1,21.4,6.1c12.6,0,21.4-3.2,21.4-6.2l0,0v3.4c-3.9,3.1-12.9,4.7-21.4,4.7
	C262.3,144.8,253.4,143.2,249.5,140.1z"/>
<path class="st1" d="M249.5,144.2v-3.2c0.3,2.9,9.1,6.1,21.4,6.1c12.6,0,21.4-3.2,21.4-6.2l0,0v3.4c-3.9,3.1-12.9,4.7-21.4,4.7
	C262.3,148.8,253.4,147.3,249.5,144.2z"/>
<path class="st1" d="M249.5,148.2v-3.2c0.3,2.9,9.1,6.1,21.4,6.1c12.6,0,21.4-3.2,21.4-6.2l0,0v3.4c-3.9,3.1-12.9,4.7-21.4,4.7
	C262.3,153,253.4,151.3,249.5,148.2z"/>
<path class="st0" d="M247.9,73.5v112.2l0,0c0,3.9-9.6,7.1-21.4,7.1c-11.8,0-21.4-3.1-21.4-7.1l0,0V73.5H247.9z"/>
<ellipse class="st1" cx="226.5" cy="73.6" rx="21.4" ry="7.1"/>
<ellipse class="st0" cx="226.6" cy="73.2" rx="17.2" ry="5.7"/>
<g>
	<path class="st1" d="M227.6,77.3v-1c1.8,0,3.6-0.1,4.7-0.4l-0.8-0.6c-1,0.3-2.7,0.4-4.4,0.4c-2.2,0-3.6-0.4-3.6-1
		c0-0.5,1.2-0.9,3.5-1.2c3.1-0.4,5.1-0.9,5.1-1.8c0-0.9-1.8-1.4-4.7-1.7v-1h-1.9v1c-1.8,0-3.1,0.1-4,0.4l0.8,0.6
		c0.6-0.1,1.9-0.4,3.9-0.4c2.3,0,3.2,0.5,3.2,0.9c0,0.5-1.2,0.8-3.8,1.2c-3.1,0.4-4.8,0.9-4.8,1.8c0,0.8,1.7,1.6,4.8,1.7v1h2.1V77.3
		z"/>
</g>
<path class="st1" d="M205,79.7v-3.2c0.3,2.9,9.1,6.1,21.4,6.1c12.7,0,21.4-3.2,21.4-6.2l0,0v3.4c-3.9,3.1-12.9,4.7-21.4,4.7
	S208.9,82.8,205,79.7z"/>
<path class="st1" d="M205,84.2V81c0.3,2.9,9.1,6.1,21.4,6.1c12.7,0,21.4-3.2,21.4-6.2l0,0v3.4c-3.9,3.1-12.9,4.7-21.4,4.7
	S208.9,87.3,205,84.2z"/>
<path class="st1" d="M205,88.5v-3.2c0.3,2.9,9.1,6.1,21.4,6.1c12.7,0,21.4-3.2,21.4-6.2l0,0v3.4c-3.9,3.1-12.9,4.7-21.4,4.7
	S208.9,91.6,205,88.5z"/>
<path class="st1" d="M205,92.4v-3.2c0.3,2.9,9.1,6.1,21.4,6.1c12.7,0,21.4-3.2,21.4-6.2l0,0v3.4c-3.9,3.1-12.9,4.7-21.4,4.7
	C217.9,97.2,208.9,95.5,205,92.4z"/>
<path class="st1" d="M205,96.4v-3.2c0.3,2.9,9.1,6.1,21.4,6.1c12.7,0,21.4-3.2,21.4-6.2l0,0v3.4c-3.9,3.1-12.9,4.7-21.4,4.7
	C217.9,101.3,208.9,99.6,205,96.4z"/>
<path class="st1" d="M205,100.6v-3.2c0.3,2.9,9.1,6.1,21.4,6.1c12.7,0,21.4-3.2,21.4-6.2l0,0v3.4c-3.9,3.1-12.9,4.7-21.4,4.7
	S208.9,103.6,205,100.6z"/>
<path class="st1" d="M205,104.6v-3.2c0.3,2.9,9.1,6.1,21.4,6.1c12.7,0,21.4-3.2,21.4-6.2l0,0v3.4c-3.9,3.1-12.9,4.7-21.4,4.7
	C217.9,109.3,208.9,107.6,205,104.6z"/>
<path class="st1" d="M205,108.7v-3.2c0.3,2.9,9.1,6.1,21.4,6.1c12.7,0,21.4-3.2,21.4-6.2l0,0v3.4c-3.9,3.1-12.9,4.7-21.4,4.7
	S208.9,111.7,205,108.7z"/>
<path class="st1" d="M205,112.7v-3.2c0.3,2.9,9.1,6.1,21.4,6.1c12.7,0,21.4-3.2,21.4-6.2l0,0v3.4c-3.9,3.1-12.9,4.7-21.4,4.7
	C217.9,117.4,208.9,115.8,205,112.7z"/>
<path class="st1" d="M205,116.7v-3.2c0.3,2.9,9.1,6.1,21.4,6.1c12.7,0,21.4-3.2,21.4-6.2l0,0v3.4c-3.9,3.1-12.9,4.7-21.4,4.7
	S208.9,119.8,205,116.7z"/>
<path class="st1" d="M205,120.8v-3.2c0.3,2.9,9.1,6.1,21.4,6.1c12.7,0,21.4-3.2,21.4-6.2l0,0v3.4c-3.9,3.1-12.9,4.7-21.4,4.7
	S208.9,123.9,205,120.8z"/>
<path class="st1" d="M205,124.8v-3.2c0.3,2.9,9.1,6.1,21.4,6.1c12.7,0,21.4-3.2,21.4-6.2l0,0v3.4c-3.9,3.1-12.9,4.7-21.4,4.7
	C217.9,129.5,208.9,127.9,205,124.8z"/>
<path class="st1" d="M205,128.8v-3.2c0.3,2.9,9.1,6.1,21.4,6.1c12.7,0,21.4-3.2,21.4-6.2l0,0v3.4c-3.9,3.1-12.9,4.7-21.4,4.7
	S208.9,131.9,205,128.8z"/>
<path class="st1" d="M205,132.8v-3.2c0.3,2.9,9.1,6.1,21.4,6.1c12.7,0,21.4-3.2,21.4-6.2l0,0v3.4c-3.9,3.1-12.9,4.7-21.4,4.7
	C217.9,137.7,208.9,136,205,132.8z"/>
<path class="st1" d="M205,137v-3.2c0.3,2.9,9.1,6.1,21.4,6.1c12.7,0,21.4-3.2,21.4-6.2l0,0v3.4c-3.9,3.1-12.9,4.7-21.4,4.7
	S208.9,140,205,137z"/>
<path class="st1" d="M205,141v-3.2c0.3,2.9,9.1,6.1,21.4,6.1c12.7,0,21.4-3.2,21.4-6.2l0,0v3.4c-3.9,3.1-12.9,4.7-21.4,4.7
	C217.9,145.7,208.9,144,205,141z"/>
<path class="st1" d="M205,145.1v-3.2c0.3,2.9,9.1,6.1,21.4,6.1c12.7,0,21.4-3.2,21.4-6.2l0,0v3.4c-3.9,3.1-12.9,4.7-21.4,4.7
	S208.9,148.1,205,145.1z"/>
<path class="st1" d="M205,149.1v-3.2c0.3,2.9,9.1,6.1,21.4,6.1c12.7,0,21.4-3.2,21.4-6.2l0,0v3.4c-3.9,3.1-12.9,4.7-21.4,4.7
	C217.9,153.8,208.9,152.1,205,149.1z"/>
<path class="st1" d="M205,153.1v-3.2c0.3,2.9,9.1,6.1,21.4,6.1c12.7,0,21.4-3.2,21.4-6.2l0,0v3.4c-3.9,3.1-12.9,4.7-21.4,4.7
	S208.9,156.2,205,153.1z"/>
<path class="st1" d="M205,157.2v-3.2c0.3,2.9,9.1,6.1,21.4,6.1c12.7,0,21.4-3.2,21.4-6.2l0,0v3.4c-3.9,3.1-12.9,4.7-21.4,4.7
	S208.9,160.3,205,157.2z"/>
<path class="st1" d="M205,161.2v-3.2c0.3,2.9,9.1,6.1,21.4,6.1c12.7,0,21.4-3.2,21.4-6.2l0,0v3.4c-3.9,3.1-12.9,4.7-21.4,4.7
	C217.9,165.9,208.9,164.3,205,161.2z"/>
<path class="st1" d="M205,164.8v-3.2c0.3,2.9,9.1,6.1,21.4,6.1c12.7,0,21.4-3.2,21.4-6.2l0,0v3.4c-3.9,3.1-12.9,4.7-21.4,4.7
	S208.9,167.8,205,164.8z"/>
<path class="st1" d="M205,168.9v-3.2c0.3,2.9,9.1,6.1,21.4,6.1c12.7,0,21.4-3.2,21.4-6.2l0,0v3.4c-3.9,3.1-12.9,4.7-21.4,4.7
	S208.9,171.8,205,168.9z"/>
<path class="st1" d="M205,172.9v-3.2c0.3,2.9,9.1,6.1,21.4,6.1c12.7,0,21.4-3.2,21.4-6.2l0,0v3.4c-3.9,3.1-12.9,4.7-21.4,4.7
	C217.9,177.6,208.9,175.9,205,172.9z"/>
<path class="st1" d="M205,176.9v-3.2c0.3,2.9,9.1,6.1,21.4,6.1c12.7,0,21.4-3.2,21.4-6.2l0,0v3.4c-3.9,3.1-12.9,4.7-21.4,4.7
	S208.9,180,205,176.9z"/>
<path class="st1" d="M205,180.9v-3.2c0.3,2.9,9.1,6.1,21.4,6.1c12.7,0,21.4-3.2,21.4-6.2l0,0v3.4c-3.9,3.1-12.9,4.7-21.4,4.7
	C217.9,185.6,208.9,184.1,205,180.9z"/>
<path class="st1" d="M205,185v-3.2c0.3,2.9,9.1,6.1,21.4,6.1c12.7,0,21.4-3.2,21.4-6.2l0,0v3.4c-3.9,3.1-12.9,4.7-21.4,4.7
	S208.9,188.1,205,185z"/>
<path class="st1" d="M205,189v-3.2c0.3,2.9,9.1,6.1,21.4,6.1c12.7,0,21.4-3.2,21.4-6.2l0,0v3.4c-3.9,3.1-12.9,4.7-21.4,4.7
	S208.9,192.1,205,189z"/>
<ellipse class="st2" cx="127.9" cy="201.4" rx="72.8" ry="7.5"/>
<path class="st3" d="M29,123.7c2.2,5.1,7.1,6.6,12.2,6c0.8-0.1,1.7-0.3,2.5-0.5c2.5,2.5,5.7,4.2,9.6,3.9c0.6,0,1.4-0.1,2.1-0.4
	c-0.1,1.7-0.3,3.2-0.3,4.8c0,21.1,10.9,39.5,27.3,49.8c0,0.3,0.1,0.4,0.1,0.5c-0.1,1.2-0.3,2.6-0.3,3.9c0,4,0.5,7.8,1.6,11.2H121
	c0.4-1.4,0.8-3.1,1-4.8c0.6-5.5,11-4.4,15.9-2.3c-0.1,0.5,1.2,5.3,1.7,7.3h37.4c1-3.4,1.6-7.1,1.6-11.2c0-0.8,0-1.4,0-2.2
	c3.2-1.7,6.2-4.2,9-6.5c4.8-4,9.6-7.8,12.6-13.1c4.2-1.4,7.4-3.9,9.9-7c0.3-0.1,0.5-0.3,0.6-0.4c4.8-4.9,6.1-10.3,5.6-16.8
	c0.5-9.7-1.9-22.6-12-25c-1.6-10-9.7-19.4-18.5-23.7c0.8-2.1,1.8-4.3,2.9-6.4c2.7-5.3,6.2-10,8.1-15.9c1.8-5.7-1.4-9.9-6.9-11.2
	c-6.1-1.4-14.7,0.3-20.3,3c-5.5,2.7-11.3,7.8-15.5,13.5c-7.9-3.4-17.4-5.3-27.6-5.5c-45.2-0.6-65.9,26.8-70.6,51.7
	c-1.7,1.2-4.5,0.8-6.9-0.3c1.4-1.2,2.7-2.7,3.6-4.4c1.9-3.8,0.9-9.1-2.9-11.4c-9.2-5.6-13.6,7.3-9.9,14.3c0.3,0.5,0.5,1,0.8,1.4
	c-1,0.1-2.1,0-3.1-0.4c-4-1.7-9.1-7.4-4.8-11.4c0.1-0.3,0.3-0.4,0.3-0.6c0.6-0.8-0.1-2.1-1-1.4C28.4,114.8,26.8,119.7,29,123.7z
	 M44.6,116.6c2.5-3.6,4.9,0.9,4,3.6c-0.5,1.4-1.6,2.7-2.9,3.8C44.2,121.9,42.9,118.9,44.6,116.6z"/>
<path class="st0" d="M311.9,138.3v50.3l0,0c0,1.8-9.6,3.2-21.4,3.2c-11.8,0-21.4-1.4-21.4-3.2l0,0v-50.3H311.9z"/>
<ellipse class="st1" cx="290.4" cy="137.3" rx="21.4" ry="7.1"/>
<ellipse class="st0" cx="290.4" cy="137.3" rx="17.2" ry="5.7"/>
<path class="st1" d="M291.5,141.4v-1c1.8,0,3.6-0.1,4.7-0.4l-0.8-0.6c-1,0.3-2.7,0.4-4.4,0.4c-2.2,0-3.6-0.4-3.6-1
	c0-0.5,1.2-0.9,3.5-1.2c3.1-0.4,5.1-0.9,5.1-1.8c0-0.9-1.8-1.4-4.7-1.7v-0.9h-1.9v1c-1.8,0-3.1,0.1-4,0.4l0.8,0.6
	c0.6-0.1,1.9-0.4,3.9-0.4c2.3,0,3.2,0.5,3.2,0.9c0,0.5-1.2,0.8-3.8,1.2c-3.1,0.4-4.8,0.9-4.8,1.8c0,0.8,1.7,1.6,4.8,1.7v1H291.5z"/>
<path class="st1" d="M268.8,143.8v-3.2c0.3,2.9,9.1,6.1,21.4,6.1c12.7,0,21.4-3.2,21.4-6.2l0,0v3.4c-3.9,3.1-12.9,4.7-21.4,4.7
	S272.7,146.9,268.8,143.8z"/>
<path class="st1" d="M268.8,148.3v-3.2c0.3,2.9,9.1,6.1,21.4,6.1c12.7,0,21.4-3.2,21.4-6.2l0,0v3.4c-3.9,3.1-12.9,4.7-21.4,4.7
	S272.7,151.4,268.8,148.3z"/>
<path class="st1" d="M268.8,152.6v-3.2c0.3,2.9,9.1,6.1,21.4,6.1c12.7,0,21.4-3.2,21.4-6.2l0,0v3.4c-3.9,3.1-12.9,4.7-21.4,4.7
	C281.7,157.4,272.7,155.7,268.8,152.6z"/>
<path class="st1" d="M268.8,156.5v-3.2c0.3,2.9,9.1,6.1,21.4,6.1c12.7,0,21.4-3.2,21.4-6.2l0,0v3.4c-3.9,3.1-12.9,4.7-21.4,4.7
	C281.7,161.3,272.7,159.6,268.8,156.5z"/>
<path class="st1" d="M268.8,160.7v-3.2c0.3,2.9,9.1,6.1,21.4,6.1c12.7,0,21.4-3.2,21.4-6.2l0,0v3.4c-3.9,3.1-12.9,4.7-21.4,4.7
	S272.7,163.7,268.8,160.7z"/>
<path class="st1" d="M268.8,164.7v-3.2c0.3,2.9,9.1,6.1,21.4,6.1c12.7,0,21.4-3.2,21.4-6.2l0,0v3.4c-3.9,3.1-12.9,4.7-21.4,4.7
	C281.7,169.4,272.7,167.7,268.8,164.7z"/>
<path class="st1" d="M268.8,168.7v-3.2c0.3,2.9,9.1,6.1,21.4,6.1c12.7,0,21.4-3.2,21.4-6.2l0,0v3.4c-3.9,3.1-12.9,4.7-21.4,4.7
	S272.7,171.7,268.8,168.7z"/>
<path class="st1" d="M268.8,172.8v-3.2c0.3,2.9,9.1,6.1,21.4,6.1c12.7,0,21.4-3.2,21.4-6.2l0,0v3.4c-3.9,3.1-12.9,4.7-21.4,4.7
	S272.7,175.7,268.8,172.8z"/>
<path class="st1" d="M268.8,176.8v-3.2c0.3,2.9,9.1,6.1,21.4,6.1c12.7,0,21.4-3.2,21.4-6.2l0,0v3.4c-3.9,3.1-12.9,4.7-21.4,4.7
	C281.7,181.5,272.7,179.9,268.8,176.8z"/>
<path class="st1" d="M268.8,180.8v-3.2c0.3,2.9,9.1,6.1,21.4,6.1c12.7,0,21.4-3.2,21.4-6.2l0,0v3.4c-3.9,3.1-12.9,4.7-21.4,4.7
	S272.7,183.9,268.8,180.8z"/>
<path class="st1" d="M268.8,184.8v-3.2c0.3,2.9,9.1,6.1,21.4,6.1c12.7,0,21.4-3.2,21.4-6.2l0,0v3.4c-3.9,3.1-12.9,4.7-21.4,4.7
	C281.7,189.5,272.7,188,268.8,184.8z"/>
<path class="st1" d="M268.8,188.9v-3.2c0.3,2.9,9.1,6.1,21.4,6.1c12.7,0,21.4-3.2,21.4-6.2l0,0v3.4c-3.9,3.1-12.9,4.7-21.4,4.7
	S272.7,192,268.8,188.9z"/>
</svg>
