<?xml version="1.0" encoding="utf-8"?>
<!-- Generator: Adobe Illustrator 25.2.0, SVG Export Plug-In . SVG Version: 6.00 Build 0)  -->
<svg version="1.1" id="Layer_1" xmlns="http://www.w3.org/2000/svg" xmlns:xlink="http://www.w3.org/1999/xlink" x="0px" y="0px"
	 viewBox="0 0 316 154" style="enable-background:new 0 0 316 154;" xml:space="preserve">
<style type="text/css">
	.st0{fill:#FDE616;}
	.st1{fill:#FFAA4D;}
	.st2{fill:#00B7A7;}
</style>
<g>
	<g>
		<path class="st0" d="M230,106.5c0,13.3-10.8,24.1-24.1,24.1s-24.1-10.8-24.1-24.1s10.8-24.1,24.1-24.1
			C219.2,82.3,230,93.2,230,106.5z"/>
		<circle class="st1" cx="205.9" cy="106.5" r="19.3"/>
	</g>
	<g>
		<path class="st0" d="M204.7,120.7v-3.5c-2,0-4.1-0.6-5.3-1.5l0.9-2.3c1.2,0.9,3.1,1.5,5,1.5c2.5,0,4.1-1.5,4.1-3.4
			s-1.3-3.1-3.9-4.1c-3.5-1.3-5.7-2.9-5.7-6c0-2.9,2-5,5.3-5.6v-3.5h2.2v3.4c2,0,3.5,0.6,4.5,1.2l-0.9,2.3c-0.7-0.4-2.2-1.2-4.4-1.2
			c-2.6,0-3.7,1.6-3.7,2.9c0,1.8,1.3,2.6,4.2,3.9c3.5,1.5,5.4,3.2,5.4,6.3c0,2.8-1.9,5.3-5.4,5.8v3.7L204.7,120.7z"/>
	</g>
</g>
<path class="st2" d="M48.5,109.6c1,1.8,1.5,3.7,1.5,5.8s-0.5,4-1.5,5.8s-2.4,3.3-4.2,4.5s-3.9,1.7-6.3,1.7H24.7
	c-0.3,0-0.5-0.1-0.7-0.3c-0.2-0.2-0.3-0.4-0.3-0.7l-0.2-9.3V95.7l0.2-9.3c0-0.3,0.1-0.5,0.3-0.7c0.2-0.2,0.4-0.3,0.7-0.3l10.6-0.1
	c2.3,0,4.3,0.6,6.1,1.7s3.2,2.6,4.2,4.4s1.5,3.8,1.5,5.9c0,1.4-0.3,2.8-0.8,4.1c-0.5,1.4-1.3,2.6-2.3,3.7
	C46,106.3,47.5,107.8,48.5,109.6z M29.4,90.7l0.1,13.1l5.8-0.1c2,0,3.5-0.6,4.6-1.9s1.7-2.8,1.7-4.6c0-1.8-0.6-3.3-1.7-4.6
	c-1.1-1.3-2.6-1.9-4.6-1.9H29.4z M42.3,120.1c1-1.3,1.5-2.8,1.5-4.6c0-1.8-0.5-3.3-1.5-4.6c-1-1.3-2.4-2-4.2-2l-8.6-0.1V122l8.6-0.1
	C39.9,122,41.3,121.4,42.3,120.1z"/>
<path class="st2" d="M106.2,125.3c0.1,0.2,0.1,0.4,0.1,0.5c0,0.4-0.1,0.8-0.4,1c-0.3,0.3-0.6,0.5-1.1,0.5h-2.7
	c-0.3,0-0.6-0.1-0.8-0.3c-0.2-0.2-0.4-0.4-0.5-0.7l-4.6-10.6l-2.8,0.1h-8.7l-2.9-0.2l-4.6,10.6c-0.1,0.3-0.3,0.5-0.5,0.7
	c-0.3,0.2-0.6,0.3-0.9,0.3h-2.7c-0.4,0-0.8-0.2-1.1-0.5c-0.3-0.3-0.4-0.6-0.4-1c0-0.1,0-0.3,0.1-0.5l3.7-9.8l4-10.1l7.6-19
	c0.1-0.3,0.3-0.5,0.6-0.7c0.3-0.2,0.5-0.3,0.8-0.3h1.3c0.3,0,0.5,0.1,0.8,0.3c0.3,0.2,0.4,0.4,0.6,0.7l7.6,19l4,10.1L106.2,125.3z
	 M92.1,105.4L89,96.9l-3.1,8.5l-1.9,4.9h10L92.1,105.4z"/>
<path class="st2" d="M162,120.1c0.2,0.2,0.2,0.4,0.2,0.7c0,0.3-0.1,0.6-0.3,0.8c-2.1,2-4.4,3.4-6.9,4.4s-5.1,1.5-7.9,1.5
	c-3.7,0-7.2-0.9-10.6-2.6c-3.3-1.8-6-4.2-8-7.4c-2-3.2-3.1-6.9-3.1-11c0-4.2,1-7.8,3-11c2-3.2,4.6-5.7,7.8-7.4
	c3.2-1.7,6.7-2.6,10.4-2.6c2.7,0,5.3,0.5,7.9,1.5s5,2.5,7.1,4.5c0.2,0.2,0.4,0.5,0.4,0.8s-0.1,0.5-0.3,0.7l-2.6,2.8
	c-0.2,0.2-0.4,0.4-0.8,0.4c-0.2,0-0.4-0.1-0.6-0.2c-1.7-1.4-3.6-2.4-5.5-3.1s-3.9-1.1-5.9-1.1c-2.6,0-5.1,0.6-7.3,1.8
	c-2.2,1.2-4,3-5.3,5.2c-1.3,2.3-2,4.9-2,7.9c0,2.9,0.7,5.4,2.2,7.7c1.5,2.2,3.4,4,5.9,5.2c2.4,1.2,5,1.9,7.7,1.9
	c4,0,7.5-1.3,10.6-3.8c0.2-0.2,0.4-0.2,0.6-0.2c0.3,0,0.5,0.1,0.7,0.3L162,120.1z"/>
<path class="st2" d="M279.4,85.7c0.2,0.2,0.3,0.4,0.3,0.7l0.2,9.3v21.4l-0.2,9.3c0,0.2-0.1,0.5-0.2,0.7s-0.3,0.3-0.6,0.4H273
	c-0.4,0-0.7-0.1-1-0.3c-0.3-0.2-0.5-0.5-0.8-0.8l-4.4-8.3L257.3,99l-2.2-4.7l0.1,1.6v21.4l-0.2,9.3c0,0.3-0.1,0.5-0.3,0.7
	s-0.4,0.3-0.7,0.3h-3.7c-0.3,0-0.5-0.1-0.7-0.3c-0.2-0.2-0.3-0.4-0.3-0.7l-0.2-9.3V95.7l0.2-9.3c0-0.3,0.2-0.5,0.3-0.7
	c0.2-0.2,0.4-0.3,0.7-0.3h5.6c0.4,0,0.8,0.1,1.1,0.3s0.6,0.5,0.8,0.8l4.9,9.7l9.5,19.1l1.7,3.6l-0.1-1.9V95.7l0.2-9.3
	c0-0.3,0.2-0.5,0.3-0.7c0.2-0.2,0.4-0.3,0.7-0.3h3.7C279,85.4,279.2,85.5,279.4,85.7z"/>
<g>
	<path class="st2" d="M58,22.7c0.2,0.2,0.3,0.4,0.3,0.7l0.2,9.3v21.4l-0.2,9.3c0,0.3-0.1,0.5-0.3,0.7c-0.2,0.2-0.4,0.3-0.7,0.3h-3.6
		c-0.3,0-0.5-0.1-0.7-0.3s-0.3-0.4-0.3-0.7l-0.2-9.3V38.5l-8.8,17c-0.2,0.3-0.4,0.5-0.6,0.7c-0.3,0.2-0.5,0.3-0.9,0.3h-3.1
		c-0.7,0-1.2-0.3-1.5-1l-9-17.5v16.1l-0.2,9.3c0,0.3-0.1,0.5-0.3,0.7c-0.2,0.2-0.4,0.3-0.7,0.3h-3.6c-0.3,0-0.5-0.1-0.7-0.3
		c-0.2-0.2-0.3-0.4-0.3-0.7l-0.2-9.3V32.7l0.2-9.3c0-0.3,0.1-0.5,0.3-0.7c0.2-0.2,0.4-0.3,0.7-0.3h3.6c0.5,0,0.8,0.2,1,0.7
		l12.3,26.7l12-26.8c0.1-0.2,0.2-0.4,0.3-0.5s0.3-0.2,0.6-0.2h3.6C57.5,22.4,57.8,22.5,58,22.7z"/>
	<path class="st2" d="M108,62.3c0.1,0.2,0.1,0.4,0.1,0.5c0,0.4-0.1,0.8-0.4,1c-0.3,0.3-0.6,0.5-1.1,0.5h-2.7c-0.3,0-0.6-0.1-0.8-0.3
		c-0.2-0.2-0.4-0.4-0.5-0.7L98,52.9L95.2,53h-8.7l-2.9-0.2L79,63.4c-0.1,0.3-0.2,0.5-0.5,0.7s-0.5,0.3-0.9,0.3h-2.7
		c-0.4,0-0.8-0.2-1-0.5s-0.5-0.6-0.5-1c0-0.1,0-0.3,0.1-0.5l3.7-9.8l4-10.1l7.6-19c0.1-0.3,0.3-0.5,0.6-0.7c0.3-0.2,0.5-0.3,0.8-0.3
		h1.3c0.3,0,0.5,0.1,0.8,0.3c0.3,0.2,0.5,0.4,0.6,0.7l7.6,19l4,10.1L108,62.3z M93.9,42.4l-3.1-8.5l-3.1,8.5l-1.9,4.9h10.1
		L93.9,42.4z"/>
	<path class="st2" d="M151.2,62.8c0.1,0.2,0.2,0.3,0.2,0.5c0,0.3-0.1,0.5-0.3,0.8c-0.2,0.2-0.5,0.3-0.8,0.3h-3.8
		c-0.4,0-0.7-0.2-0.9-0.5l-12.1-19l-4.4,5.8v3.4l-0.2,9.3c0,0.3-0.1,0.5-0.3,0.7s-0.4,0.3-0.7,0.3h-3.6c-0.3,0-0.5-0.1-0.7-0.3
		c-0.2-0.2-0.3-0.4-0.3-0.7l-0.2-9.3V32.7l0.2-9.3c0-0.3,0.1-0.5,0.3-0.7c0.2-0.2,0.4-0.3,0.7-0.3h3.6c0.3,0,0.5,0.1,0.7,0.3
		c0.2,0.2,0.3,0.4,0.3,0.7l0.2,9.3v8.7l14.4-18.6c0.2-0.3,0.5-0.4,0.8-0.4h4.2c0.3,0,0.5,0.1,0.7,0.3c0.2,0.2,0.3,0.5,0.3,0.7
		c0,0.3-0.1,0.5-0.2,0.7l-12.1,16L151.2,62.8z"/>
	<path class="st2" d="M182.1,22.8c0.2,0.2,0.2,0.3,0.2,0.5v3.2c0,0.2-0.1,0.4-0.2,0.5c-0.2,0.2-0.3,0.2-0.5,0.2l-4.4,0.1l0.1,4.9
		v22.1l-0.1,4.9l4.4,0.1c0.2,0,0.4,0.1,0.5,0.2c0.2,0.2,0.2,0.3,0.2,0.5v3.2c0,0.2-0.1,0.4-0.2,0.5c-0.2,0.1-0.3,0.2-0.5,0.3
		l-7.2,0.1l-7.1-0.1c-0.2,0-0.4-0.1-0.5-0.3c-0.2-0.1-0.2-0.3-0.2-0.5V60c0-0.2,0.1-0.4,0.2-0.5c0.2-0.2,0.3-0.2,0.5-0.2l4.4-0.1
		l-0.1-4.9v-22l0.1-4.9l-4.4-0.1c-0.2,0-0.4-0.1-0.5-0.2c-0.2-0.2-0.2-0.3-0.2-0.5v-3.2c0-0.2,0.1-0.4,0.2-0.5
		c0.2-0.2,0.3-0.2,0.5-0.2l7.1-0.2l7.2,0.2C181.7,22.6,181.9,22.6,182.1,22.8z"/>
	<path class="st2" d="M228.8,22.7c0.2,0.2,0.3,0.4,0.3,0.7l0.2,9.3v21.4l-0.2,9.3c0,0.2-0.1,0.5-0.2,0.7c-0.1,0.2-0.3,0.3-0.6,0.4
		h-5.9c-0.4,0-0.7-0.1-1-0.3c-0.3-0.2-0.5-0.5-0.8-0.8l-4.4-8.3L206.7,36l-2.2-4.7l0.1,1.6v21.4l-0.2,9.3c0,0.3-0.1,0.5-0.3,0.7
		c-0.2,0.2-0.4,0.3-0.7,0.3h-3.7c-0.3,0-0.5-0.1-0.7-0.3c-0.2-0.2-0.3-0.4-0.3-0.7l-0.2-9.3V32.7l0.2-9.3c0-0.3,0.1-0.5,0.3-0.7
		s0.4-0.3,0.7-0.3h5.6c0.4,0,0.8,0.1,1.1,0.3c0.3,0.2,0.6,0.5,0.8,0.8l4.9,9.7l9.5,19.1l1.7,3.6l-0.1-1.9V32.7l0.2-9.3
		c0-0.3,0.2-0.5,0.3-0.7c0.2-0.2,0.4-0.3,0.7-0.3h3.7C228.4,22.4,228.6,22.5,228.8,22.7z"/>
	<path class="st2" d="M281,41.8c0.2,0.2,0.3,0.4,0.3,0.8l0.2,12.9c-0.2,1.6-1,3-2.5,4.4s-3.3,2.5-5.5,3.3s-4.5,1.2-6.9,1.2
		c-3.8,0-7.3-0.9-10.5-2.8c-3.2-1.9-5.8-4.4-7.7-7.6c-1.9-3.2-2.8-6.7-2.8-10.5c0-3.9,0.9-7.4,2.6-10.5c1.7-3.1,4.2-5.6,7.3-7.5
		c3.2-1.9,6.9-2.9,11.1-2.9c2.4,0,4.9,0.4,7.4,1.2c2.5,0.8,4.7,2.1,6.7,3.7c0.2,0.2,0.4,0.4,0.4,0.7c0,0.3-0.1,0.5-0.2,0.7l-2.6,3.1
		c-0.2,0.2-0.5,0.3-0.8,0.3c-0.2,0-0.4-0.1-0.6-0.2c-2.9-2.2-6.4-3.4-10.6-3.4c-2.8,0-5.4,0.7-7.6,2c-2.2,1.3-4,3.1-5.2,5.4
		s-1.9,4.8-1.9,7.5c0,2.8,0.7,5.3,2.1,7.5c1.4,2.3,3.3,4,5.8,5.4c2.4,1.3,5.1,2,8,2c0.6,0,1.1,0,1.4-0.1c3.2-0.3,5.5-1.2,6.9-2.7
		v-8.2l-10.1-0.2c-0.3,0-0.5-0.1-0.7-0.3s-0.3-0.4-0.3-0.7v-3.4c0-0.3,0.1-0.5,0.3-0.7s0.4-0.3,0.7-0.3l10.1-0.2h4.6
		C280.6,41.5,280.8,41.6,281,41.8z"/>
</g>
</svg>
